#!OML:ASF E:\acrobat2\Project_11_07_03\Capture day 1\Session 1\Acrobat.ASF
:FULLY-SPECIFIED
:DEGREES
433
root 11.5528 17.8888 26.3075 -177.304 -50.1348 -177.587
lowerback -3.27571 -2.40068 -4.2038
upperback 1.49455 -3.0488 -4.70814
thorax 3.34076 -1.63422 -2.7035
lowerneck 6.92026 13.0362 6.65022
upperneck -9.83665 17.79 -4.37734
head -3.39374 8.7618 -3.31476
rclavicle -1.98785e-015 -7.95139e-015
rhumerus -73.712 -25.5938 -32.924
rradius 29.3635
rwrist -24.1076
rhand -12.7162 -45.9461
rfingers 7.12502
rthumb 13.3668 -75.4974
lclavicle -1.98785e-015 -7.95139e-015
lhumerus 155.658 -81.4333 -62.9142
lradius 70.8712
lwrist 2.44581
lhand -7.49255 -27.6602
lfingers 7.12502
lthumb 18.3971 1.48982
rfemur -3.24552 17.4498 4.66397
rtibia -2.07041
rfoot -24.7443 -34.0419
rtoes 14.1755
lfemur 7.75549 1.99468 -8.11521
ltibia 8.55969
lfoot -26.5703 -1.32188
ltoes 26.4643
434
root 11.5565 17.8881 26.2962 -177.132 -50.2419 -177.656
lowerback -3.44687 -2.26799 -4.23342
upperback 1.41195 -2.85846 -4.62021
thorax 3.36028 -1.53803 -2.58914
lowerneck 6.55673 12.897 6.47873
upperneck -9.43438 17.5861 -4.05767
head -3.24332 8.66031 -3.12549
rclavicle -2.32578e-014 8.11041e-014
rhumerus -73.7157 -25.7829 -33.7227
rradius 29.3128
rwrist -23.5115
rhand -12.7251 -45.7455
rfingers 7.12502
rthumb 13.3581 -75.2973
lclavicle -2.32578e-014 8.11041e-014
lhumerus 157.219 -81.2636 -65.1751
lradius 71.4268
lwrist 2.59412
lhand -7.33958 -27.6206
lfingers 7.12502
lthumb 18.5442 1.51546
rfemur -3.25431 17.5911 4.59372
rtibia -2.23131
rfoot -25.2039 -34.0887
rtoes 15.7536
lfemur 7.80833 1.59779 -8.26548
ltibia 8.18348
lfoot -26.7597 -0.686875
ltoes 24.9274
435
root 11.5614 17.8904 26.2851 -176.925 -50.3279 -177.875
lowerback -3.56684 -2.16013 -4.43583
upperback 1.37793 -2.69586 -4.52496
thorax 3.40876 -1.46067 -2.37179
lowerneck 7.03498 12.8928 6.74904
upperneck -9.85894 17.5979 -4.56633
head -3.40803 8.67299 -3.39896
rclavicle 2.54444e-014 2.8625e-014
rhumerus -73.5151 -26.0993 -34.357
rradius 29.0844
rwrist -22.5715
rhand -12.4238 -45.5999
rfingers 7.12502
rthumb 13.6486 -75.1324
lclavicle 2.54444e-014 2.8625e-014
lhumerus 157.966 -81.1194 -66.6315
lradius 71.896
lwrist 2.95244
lhand -7.21109 -27.3291
lfingers 7.12502
lthumb 18.6678 1.79514
rfemur -3.22156 17.5865 4.43285
rtibia -2.32202
rfoot -26.0982 -33.7024
rtoes 18.8178
lfemur 7.96554 1.28008 -8.50737
ltibia 7.79321
lfoot -26.836 0.214729
ltoes 21.764
436
root 11.5658 17.8923 26.2827 -176.937 -50.4222 -177.824
lowerback -3.58228 -2.04998 -4.37498
upperback 1.2915 -2.54985 -4.38942
thorax 3.33213 -1.38294 -2.25234
lowerneck 7.04921 12.7901 6.67468
upperneck -9.81575 17.4561 -4.52847
head -3.41487 8.60427 -3.37339
rclavicle 4.8901e-014 3.33958e-014
rhumerus -73.2406 -26.3447 -34.9735
rradius 28.8394
rwrist -21.5358
rhand -12.133 -45.6619
rfingers 7.12502
rthumb 13.9288 -75.1754
lclavicle 4.8901e-014 3.33958e-014
lhumerus 159.833 -81.3553 -69.167
lradius 72.2245
lwrist 3.19409
lhand -6.97386 -27.0677
lfingers 7.12502
lthumb 18.896 2.03444
rfemur -3.26677 17.3925 4.45256
rtibia -2.24214
rfoot -26.5158 -33.4519
rtoes 19.8826
lfemur 8.12871 1.00374 -8.53355
ltibia 7.33737
lfoot -26.815 0.667284
ltoes 21.0592
437
root 11.5683 17.8908 26.2865 -176.912 -50.5781 -177.684
lowerback -3.64744 -1.99681 -4.15109
upperback 1.14032 -2.48612 -4.24446
thorax 3.20907 -1.3414 -2.21942
lowerneck 6.93206 12.6159 6.65282
upperneck -9.54114 17.2156 -4.47372
head -3.31873 8.49064 -3.3202
rclavicle 6.30147e-014 -4.77083e-015
rhumerus -72.7288 -26.4434 -35.896
rradius 28.6937
rwrist -20.6773
rhand -12.0872 -45.6439
rfingers 7.12502
rthumb 13.973 -75.1543
lclavicle 6.30147e-014 -4.77083e-015
lhumerus 162.174 -81.7179 -72.1911
lradius 72.3035
lwrist 3.43126
lhand -6.98733 -26.815
lfingers 7.12502
lthumb 18.883 2.28841
rfemur -3.48785 16.8451 4.43518
rtibia -2.05699
rfoot -26.1174 -33.3558
rtoes 18.888
lfemur 8.0905 0.696988 -8.50353
ltibia 6.97877
lfoot -26.8256 0.748623
ltoes 22.2599
438
root 11.5734 17.888 26.2783 -176.732 -50.7557 -177.701
lowerback -3.83219 -1.95628 -4.11685
upperback 1.00027 -2.42483 -4.14776
thorax 3.17121 -1.30736 -2.13743
lowerneck 6.91195 12.6113 6.78511
upperneck -9.18258 17.2104 -4.60544
head -3.1662 8.50229 -3.35427
rclavicle -8.82604e-014 1.74931e-014
rhumerus -72.1041 -26.4232 -37.167
rradius 28.6299
rwrist -20.2209
rhand -12.2276 -45.5879
rfingers 7.12502
rthumb 13.8377 -75.1076
lclavicle -8.82604e-014 1.74931e-014
lhumerus 164.066 -81.8359 -74.7848
lradius 72.0095
lwrist 3.77118
lhand -7.43861 -26.6325
lfingers 7.12502
lthumb 18.4489 2.51265
rfemur -3.6553 16.6258 4.36693
rtibia -2.04924
rfoot -25.8024 -33.6064
rtoes 17.7564
lfemur 8.03221 0.454874 -8.50526
ltibia 6.68309
lfoot -26.8219 0.74221
ltoes 22.4156
439
root 11.5826 17.8866 26.2508 -176.632 -51.0254 -177.717
lowerback -4.05795 -1.93667 -4.33436
upperback 0.942516 -2.37245 -4.0122
thorax 3.2537 -1.2844 -1.88033
lowerneck 6.79243 12.424 6.8063
upperneck -8.98089 16.9621 -4.48601
head -3.09892 8.37687 -3.29291
rclavicle -6.06293e-015 -2.54444e-014
rhumerus -71.5589 -26.4278 -38.4308
rradius 28.71
rwrist -19.8739
rhand -12.2146 -45.4801
rfingers 7.12502
rthumb 13.8502 -74.999
lclavicle -6.06293e-015 -2.54444e-014
lhumerus 166.244 -82.0789 -77.6703
lradius 71.5686
lwrist 4.05477
lhand -7.97777 -26.4168
lfingers 7.12502
lthumb 17.9302 2.77672
rfemur -3.39828 17.8315 4.4872
rtibia -2.53986
rfoot -27.9713 -33.9652
rtoes 21.0485
lfemur 8.12804 0.290596 -8.36417
ltibia 6.33124
lfoot -26.7075 0.352366
ltoes 23.6074
440
root 11.5894 17.8894 26.2392 -176.627 -51.1 -177.724
lowerback -4.11246 -1.87746 -4.44629
upperback 0.878779 -2.28397 -3.8569
thorax 3.22909 -1.24002 -1.6511
lowerneck 6.74989 12.3391 6.71664
upperneck -8.84639 16.8483 -4.33533
head -3.07296 8.3188 -3.21863
rclavicle 1.59028e-015 3.18055e-014
rhumerus -70.9192 -26.4387 -39.5857
rradius 28.8251
rwrist -19.381
rhand -12.1167 -45.0593
rfingers 7.12502
rthumb 13.9445 -74.5717
lclavicle 1.59028e-015 3.18055e-014
lhumerus 168.926 -82.6492 -81.1282
lradius 71.2174
lwrist 4.48046
lhand -8.27084 -26.2069
lfingers 7.12502
lthumb 17.6482 3.01213
rfemur -3.38996 17.2698 4.55814
rtibia -2.37027
rfoot -26.6329 -34.2557
rtoes 17.7675
lfemur 8.27847 0.149265 -8.35153
ltibia 6.02416
lfoot -26.7009 0.0813089
ltoes 25.2736
441
root 11.5989 17.8935 26.2277 -176.535 -51.1849 -177.783
lowerback -4.1932 -1.81423 -4.58263
upperback 0.828419 -2.18733 -3.73261
thorax 3.23197 -1.19293 -1.4414
lowerneck 6.41548 12.2508 6.28819
upperneck -8.66161 16.7086 -3.78649
head -3.04099 8.23844 -2.9402
rclavicle -4.14466e-014 1.90833e-014
rhumerus -70.2343 -26.3346 -40.9988
rradius 29.1467
rwrist -19.2677
rhand -12.2782 -44.9276
rfingers 7.12502
rthumb 13.7889 -74.4506
lclavicle -4.14466e-014 1.90833e-014
lhumerus 171.434 -83.1478 -84.5495
lradius 70.9148
lwrist 5.15144
lhand -8.7229 -26.0628
lfingers 7.12502
lthumb 17.2132 3.19477
rfemur -3.3852 17.3993 4.56389
rtibia -2.40725
rfoot -26.9584 -34.2934
rtoes 17.9726
lfemur 8.32389 0.103091 -8.33977
ltibia 5.81368
lfoot -26.6401 -0.0797216
ltoes 26.1692
442
root 11.609 17.8979 26.2159 -176.459 -51.2796 -177.84
lowerback -4.22052 -1.75996 -4.68079
upperback 0.798804 -2.10781 -3.63668
thorax 3.22314 -1.15391 -1.28195
lowerneck 6.86951 12.2881 6.76013
upperneck -9.12395 16.7898 -4.35563
head -3.18989 8.28034 -3.26046
rclavicle -2.25621e-014 2.70347e-014
rhumerus -69.4436 -26.0692 -42.666
rradius 29.581
rwrist -19.326
rhand -12.2854 -45.0082
rfingers 7.12502
rthumb 13.7819 -74.5317
lclavicle -2.25621e-014 2.70347e-014
lhumerus 174.294 -83.7587 -88.3682
lradius 70.4075
lwrist 5.47588
lhand -9.63583 -25.8906
lfingers 7.12502
lthumb 16.3343 3.44149
rfemur -3.31946 17.9227 4.61335
rtibia -2.48117
rfoot -27.7489 -34.526
rtoes 18.6255
lfemur 8.40717 0.0233226 -8.32611
ltibia 5.55211
lfoot -26.6133 -0.0238732
ltoes 26.1843
443
root 11.6256 17.8924 26.1888 -177.757 -51.29 -176.405
lowerback -4.10927 -1.68449 -4.02678
upperback 0.819497 -2.03319 -3.22742
thorax 3.17237 -1.09669 -1.21296
lowerneck 6.72917 12.1599 6.78325
upperneck -9.02945 16.6058 -4.39458
head -3.13674 8.19216 -3.25494
rclavicle 7.45443e-015 6.36111e-015
rhumerus -68.5998 -25.6796 -44.3559
rradius 30.0566
rwrist -19.1732
rhand -11.8618 -44.7516
rfingers 7.12502
rthumb 14.1902 -74.2469
lclavicle 7.45443e-015 6.36111e-015
lhumerus 179.08 -84.6111 -94.0399
lradius 69.6144
lwrist 5.52704
lhand -9.43882 -25.0856
lfingers 7.12502
lthumb 16.524 4.23078
rfemur -2.92402 20.0924 5.97478
rtibia -2.7815
rfoot -31.0345 -34.7126
rtoes 23.4931
lfemur 8.781 0.123056 -6.93496
ltibia 5.21633
lfoot -26.4606 -0.064328
ltoes 26.5197
444
root 11.6242 17.8982 26.1899 -177.007 -51.5322 -177.318
lowerback -4.16582 -1.70125 -4.4865
upperback 0.769653 -2.03537 -3.28649
thorax 3.16698 -1.10809 -1.01935
lowerneck 6.72683 12.086 6.7169
upperneck -8.93116 16.4998 -4.39469
head -3.11434 8.14463 -3.23752
rclavicle 2.40529e-014 -7.95139e-015
rhumerus -67.7743 -25.3433 -45.9749
rradius 30.5704
rwrist -19.0084
rhand -11.1515 -44.4048
rfingers 7.12502
rthumb 14.8745 -73.8509
lclavicle 2.40529e-014 -7.95139e-015
lhumerus 186.438 -85.3613 -102.302
lradius 68.7656
lwrist 6.15595
lhand -9.53169 -25.3557
lfingers 7.12502
lthumb 16.4346 3.96818
rfemur -2.90711 18.8731 5.25333
rtibia -2.67264
rfoot -29.1917 -34.9334
rtoes 20.038
lfemur 8.79426 -0.208517 -7.77161
ltibia 4.96777
lfoot -26.5651 0.0684374
ltoes 27.0757
445
root 11.6208 17.901 26.193 -176.097 -51.7375 -178.261
lowerback -4.34542 -1.64329 -4.85723
upperback 0.678664 -1.93644 -3.41756
thorax 3.18032 -1.06802 -0.945825
lowerneck 6.72377 12.0041 6.72845
upperneck -8.80839 16.3959 -4.33409
head -3.08218 8.09298 -3.21093
rclavicle -2.05742e-014 4.29375e-014
rhumerus -67.0655 -25.2068 -47.3597
rradius 30.9126
rwrist -18.746
rhand -10.2832 -43.835
rfingers 7.12502
rthumb 15.7109 -73.2172
lclavicle -2.05742e-014 4.29375e-014
lhumerus 196.31 -85.9194 -113.111
lradius 67.856
lwrist 6.76796
lhand -9.75607 -25.3055
lfingers 7.12502
lthumb 16.2185 4.03606
rfemur -2.98713 18.4961 4.38445
rtibia -2.90582
rfoot -29.8434 -34.3864
rtoes 22.5406
lfemur 8.72839 -0.651935 -8.69392
ltibia 4.65257
lfoot -26.6827 0.313791
ltoes 26.9245
446
root 11.6241 17.9014 26.1858 -175.93 -51.8796 -178.407
lowerback -4.43328 -1.53992 -4.86612
upperback 0.615933 -1.7945 -3.39281
thorax 3.16292 -0.996491 -0.906103
lowerneck 6.70554 11.8522 6.70204
upperneck -8.7096 16.198 -4.2141
head -3.06961 7.9918 -3.15923
rclavicle 4.96962e-016 7.31528e-014
rhumerus -66.4608 -25.1229 -48.5346
rradius 31.3702
rwrist -18.0247
rhand -9.4478 -43.9323
rfingers 7.12502
rthumb 16.5153 -73.2495
lclavicle 4.96962e-016 7.31528e-014
lhumerus 209.596 -86.4338 -127.198
lradius 66.7258
lwrist 6.82022
lhand -9.97849 -25.0124
lfingers 7.12502
lthumb 16.0044 4.34652
rfemur -2.97921 18.0112 4.29937
rtibia -2.80714
rfoot -28.7245 -34.7718
rtoes 19.668
lfemur 8.80756 -0.77229 -8.79031
ltibia 4.33902
lfoot -26.5372 0.337784
ltoes 26.5899
